<svg xmlns="http://www.w3.org/2000/svg" viewBox="0 0 430 430"><path d="M225 317h-20v-20h20zm0-60h-20V113h20z" fill="#333334"/><path d="M215 70.64l118.43 30.22c.61 31.83-.11 109.35-18.65 167.54v.06l-.05.21c-.05.16-.1.32-.16.48l.2-.67c-.86 1.79-5.44 10.49-19.26 24.87-13.26 13.8-37.76 35.55-80.48 63-42.72-27.45-67.22-49.2-80.48-63-14.05-14.62-18.55-23.37-19.3-25C96.68 210.21 96 132.68 96.57 100.86L215 70.64M215 50L77.06 85.2S70.9 196.08 96.42 275.28c0 0 13.64 39.6 118.58 104.72 104.94-65.12 118.58-104.72 118.58-104.72 25.52-79.2 19.36-190.08 19.36-190.08L215 50z" fill="#333334"/></svg>
