<svg xmlns="http://www.w3.org/2000/svg" viewBox="0 0 512 512"><path fill="#333334" d="M254.22 200.8v1.46l-2 .64-.61-.19-1.39-.44v-1.47h4zM252.82 104.35l-.6.19h-.01l-.6-.19.61-1.9.6 1.9zM252.82 100.54l-.6 1.9-.61-1.9.61-.19.6.19z"/><path fill="#333334" d="M254.22 200.8v1.46l-2 .64-.61-.19-1.39-.44v-1.47h4zM252.82 104.35l-.6.19h-.01l-.6-.19.61-1.9.6 1.9z"/><path fill="#333334" d="M252.82 104.35l-.6.19h-.01l-.6-.19.61-1.9.6 1.9zM308.21 166.91l-10.9-3.48 1.21-3.81 10.91 3.48zM286.4 160l-10.9-3.48 1.22-3.81 10.9 3.48zm-21.8-7l-10.91-3.48 1.22-3.81 10.9 3.48zm-21.81-7l-10.9-3.47 1.21-3.81 10.9 3.47zm-21.81-7l-10.9-3.47 1.21-3.81 10.91 3.47zM193.46 130.336l1.215-3.811 5.716 1.822-1.214 3.811zM223.37 302.48l-10.9-3.48 1.22-3.81 10.89 3.47zm-21.79-7l-10.9-3.47 1.22-3.81 10.89 3.47zm-21.79-6.94l-10.89-3.48 1.21-3.81 10.89 3.53zm-21.79-6.9l-10.89-3.47 1.21-3.81 10.9 3.47zm-21.79-6.94l-10.89-3.48 1.21-3.81 10.9 3.48zM281 302.47l-1.22-3.81 11.07-3.53 1.22 3.81zm22.14-7.06l-1.22-3.81 11.08-3.53 1.22 3.81zm22.14-7.06l-1.22-3.81 11.06-3.54 1.22 3.81zm22.14-7.05l-1.22-3.81 11.06-3.49 1.22 3.81zm22.14-7.06l-1.22-3.81 11.08-3.53 1.21 3.81z"/><path d="M338.92 354.63h-4V343h4zm0-23.26h-4v-11.63h4zm0-23.26h-4v-11.63h4zm0-23.26h-4v-11.63h4zm0-23.26h-4V250h4zm0-23.26h-4V226.7h4zm0-23.26h-4v-11.63h4zM197.1 167l-1.22-3.81 10.88-3.47 1.21 3.81zm21.75-7l-1.21-3.81 10.87-3.46 1.22 3.81zm21.75-6.93l-1.21-3.81 10.87-3.47 1.22 3.81zm21.76-6.93l-1.22-3.82 10.86-3.45 1.21 3.81zm21.75-6.94l-1.22-3.81 10.88-3.47 1.21 3.81zM304.639 128.478l5.716-1.823 1.215 3.812-5.717 1.822zM170.51 354.56h-4V343h4zm0-23.22h-4v-11.62h4zm0-23.23h-4v-11.62h4zm0-23.23h-4v-11.62h4zm0-23.23h-4V250h4zm0-23.23h-4V226.8h4zm0-23.23h-4v-11.62h4z" fill="#333334"/><path d="M408.56 246.37h-.1v-96.21l-72.24-23a13.16 13.16 0 0 0 .2-2.35 14 14 0 0 0-26.62-6.08l-57-18.16-.6 1.9-.61-1.9-56.45 18a14 14 0 0 0-26.53 6.25 12.91 12.91 0 0 0 .18 2.15l-71.47 22.75-1.39.44v96.35a14 14 0 0 0 0 27.72v89.07l58.74 18.7a14.82 14.82 0 0 0-.16 2.13 14 14 0 0 0 26.49 6.31l70.54 22.49.61.19 72.09-23a14 14 0 0 0 26.66-6 13.32 13.32 0 0 0-.22-2.46l57.76-18.4v-88.89h.1a14 14 0 1 0 0-28zm-86.14-131.59a10 10 0 0 1 10 10 8.27 8.27 0 0 1-.07 1.11l-18.68-6a10 10 0 0 1 8.75-5.11zm-139.79 0a10 10 0 0 1 8.66 5l-18.61 5.93a7 7 0 0 1-.05-.92 10 10 0 0 1 10-10.01zm-10.91 15.42h.06l22.88-7.3 57.52-18.34-.6-.19.61-1.9.6 1.9-.6.19 58.15 18.54 89.52 28.55-50.44 16.08a14 14 0 0 0-25.12.13l-4-1.27-1.21 3.81 4 1.27a14.6 14.6 0 0 0-.19 2.31 15.36 15.36 0 0 0 .16 2.16l-70.84 22.56-69.93-22.28a13.32 13.32 0 0 0 .22-2.46 14.6 14.6 0 0 0-.19-2.31l3.91-1.24-1.23-3.81-3.9 1.24a14 14 0 0 0-25.26.15l-51.33-16.36zm175.2 43.8a10 10 0 1 1-10-10 10 10 0 0 1 10 10zm-168.41 0a10 10 0 1 1-10-10 10 10 0 0 1 10 10zm-90.63 86.37a10 10 0 1 1 10 10 10 10 0 0 1-10-10zm80.63 133.8a10 10 0 1 1 10-10 10 10 0 0 1-10 10zm73.66-84.62a10 10 0 1 1 10 10 10 10 0 0 1-10-10zm94.75 84.62a10 10 0 1 1 10-10 10 10 0 0 1-10 10zm67.54-33.79l-55 17.54a14.05 14.05 0 0 0-10.52-7.61v-4.05h-4v4.05a14 14 0 0 0-12 13.86 15.22 15.22 0 0 0 .16 2.15l-68.86 21.95V323.4a14 14 0 0 0 12-13.85 13.47 13.47 0 0 0-.19-2.3l3.94-1.26-1.22-3.81-3.94 1.26a14 14 0 0 0-10.54-7.74v-93.44l-2 .64-.61-.19-1.39-.44v93.42a14 14 0 0 0-10.64 7.75l-4.1-1.31-1.21 3.81 4.09 1.31a13.47 13.47 0 0 0-.19 2.3 14 14 0 0 0 12.05 13.86v84.89l-67.93-21.65a14.48 14.48 0 0 0 .22-2.48 14 14 0 0 0-12-13.86v-4.13h-4v4.13a14.06 14.06 0 0 0-10.67 7.91l-55.98-17.84v-86.16a14 14 0 0 0 10.54-7.73l4 1.26 1.21-3.81-4-1.26a14.6 14.6 0 0 0 .19-2.31 14 14 0 0 0-11.95-13.85v-92.16l54.74 17.45a15.22 15.22 0 0 0-.16 2.15 14 14 0 0 0 12 13.86V192h4v-4.14a14.05 14.05 0 0 0 10.5-7.65l69.19 22.06v-1.47h4v1.46l70-22.32a14.06 14.06 0 0 0 10.66 7.88v4h4v-4a14 14 0 0 0 12-13.86 13.21 13.21 0 0 0-.22-2.45l53.76-17.14V247a14 14 0 0 0-9.9 13.39 13.14 13.14 0 0 0 .1 1.67l-4.18 1.33 1.21 3.81 4-1.28a14.07 14.07 0 0 0 8.76 7.86zm4.1-90a10 10 0 1 1 10-10 10 10 0 0 1-10 9.99z" fill="#333334"/></svg>
