<svg xmlns="http://www.w3.org/2000/svg" viewBox="0 -213 882 1008"><path fill="currentColor" d="M297 332l6 6c-6-6-6-14-4-14 4 0 4 6 8 8 4 4 10 8 16 12 12 9 27 19 47 19s43-12 57-19c8-5 18-12 26-18 6-6 6-12 12-12s2 6-6 12-20 14-30 20c-17 10-39 21-63 21-21 0-39-10-53-20-6-5-12-11-16-15zm502 555v4c0-10-6-26-27-49-20-22-14-66-34-83-13-12-27-10-45-10-16 18-51 40-77 34-22-6-33-32-35-58-14 8-22 22-28 42-4 20-5 45-8 75-1 23-12 53-19 80-7 26-11 50 0 71 13 28 37 40 65 38 27-2 59-20 84-52 44-53 122-59 124-92zm-486 14l-20 8c75 51 164 31 227-14 6-22 12-41 14-57 2-30 4-57 9-79 7-26 18-47 42-55 4-42 35-41 75-24 37 16 51 30 45 49h8c10-33-28-55-59-68 6-24 5-48 0-71-12-50-46-95-71-117-4 0-4 5 6 14 23 22 74 97 47 168-8-2-16-4-22-4-10-57-33-105-45-126-22-42-57-128-73-187-8 11-23 21-43 27-10 2-20 10-32 16-28 15-59 18-82-2-8-8-14-16-24-22-4-2-10-6-12-8-4 75-54 167-77 221-16 39-25 81-27 122-43-57-12-130 6-161 20-36 23-46 19-42-17 28-42 71-53 116-5 24-6 48 2 69 8 22 24 42 51 57 0 0 50 27 77 63 15 20 18 38 14 50-4 13-18 17-31 17 9 12 21 26 29 40zm4 49l-2 2c4-41-60-100-81-138l-39-71c-14-18-28-29-43-31-16-2-26 4-36 13-10 10-18 24-27 36-16 12-18 12-38 20-11 4-21 7-27 21-6 10-4 24-2 40 2 15 6 31 2 47-10 27-10 43-6 53 15 30 92 12 151 43 61 32 142 34 148-35zm4-660l-10 2c-8 6-10 14-8 24 4 10 14 21 32 31 16 10 23 24 39 30 6 2 12 4 20 4 35 2 53-22 75-30 23-8 40-21 45-35 6-17-4-30-20-37-21-11-31-10-43-18-20-14-36-18-49-18-28 0-46 20-55 28 0 0-14 10-26 19zm29-124l-2 4c-37 0-47 73-15 103 15-12 14-10 12-12-16-14-14-55 2-57 11-2 21 19 19 37 6-4 14-8 22-10 4-37-18-65-38-65zm83 20l-2 2c-6 14-8 30-6 43 8 2 18 4 26 8-4-23 10-45 23-45 18 0 28 30 18 53-2 4-6 6-8 8 14 4 22 8 26 10 16-20 22-54 10-81-19-42-67-41-87 2zm394 616l-8 6c22 24 32 42 32 57 0 16-12 28-26 36-30 17-73 31-100 63-29 33-62 53-95 55-32 2-61-14-77-47l-6-12c-41 2-78-12-108-10-43 2-71 12-94 12-10 21-28 35-52 41-31 8-71 1-110-20-36-18-81-17-114-25-18-4-34-10-41-24-8-14-7-33 4-61 3-10 1-25 0-41-2-8-4-16-4-24s1-16 5-23c10-18 24-26 38-30s25-8 33-16c10-12 20-29 34-41-6-34 0-69 12-104 25-75 80-145 116-191 33-44 43-81 45-126 3-63-49-268 152-268 159 0 149 167 149 258 0 59 33 98 67 140 29 35 69 86 91 145 18 49 25 103 8 156 2 0 4 2 6 4s3 4 5 6c14 12 18 29 22 45s8 31 16 39zM392 249v4c-2 0-6-2-6-4s4-4 6-6c4-2 8-2 12 0 0 2-4 2-6 4-2 0-4 2-6 2zm43-6v2c-2-2-6-2-6-4v-2c4-2 8-2 12 0 2 2 6 4 6 6s-4 2-6 2-4-2-6-4z"/></svg>
