<svg xmlns="http://www.w3.org/2000/svg" viewBox="0 0 430 430"><path d="M215 70a145 145 0 1 1-102.53 42.47A144 144 0 0 1 215 70m0-20a165 165 0 1 0 165 165A165 165 0 0 0 215 50z" fill="#333334"/><path fill="#333334" d="M205 284.44h20v20h-20zM204 247l-.49-6.39c-1.48-13.27 3-27.77 15.23-42.51 11.06-13 17.2-22.61 17.2-33.66 0-12.53-7.86-20.89-23.34-21.13-8.85 0-18.68 2.94-24.82 7.61l-5.9-15.48c8.11-5.89 22.12-9.83 35.14-9.83 28.26 0 41 17.45 41 36.12 0 16.71-9.34 28.75-21.14 42.76-10.81 12.77-14.74 23.59-14 36.12l.24 6.39z"/></svg>
