<svg xmlns="http://www.w3.org/2000/svg" data-name="Layer 1" viewBox="0 0 330 330"><path d="M166.32 122.5h16.11v82.82c-5.49 0-10.93.05-16.37-.08-.63 0-1.43-1-1.83-1.69Q148.87 176.82 133.6 150a11.55 11.55 0 0 0-2.2-3v58.09h-16.24v-82.71c5.86 0 11.69-.06 17.52.09.65 0 1.43 1.19 1.88 2q15.08 26.37 30.08 52.78a5.15 5.15 0 0 0 1.68 1.95zM99 122.53v2.58c0 16.93.07 33.87-.06 50.8a49.83 49.83 0 0 1-1.28 10.81c-2.11 9.14-7.78 15.33-16.64 18.33a47.29 47.29 0 0 1-29.08.63C39.47 202 32.43 193.34 32.2 180.37c-.35-19.05-.13-38.12-.14-57.18a3.29 3.29 0 0 1 .16-.63h17.57v53.06a25.9 25.9 0 0 0 .22 4.32c1.7 10.17 9.44 14.79 20.39 12.22 7.32-1.71 10.77-6.67 10.79-15.72v-53.88zM298 205.32c-7.07 0-13.65.06-20.23-.08-.68 0-1.55-1.05-2-1.8-4.43-7.86-8.79-15.76-13.17-23.64-.4-.72-.82-1.43-1.42-2.48-.56.87-1 1.52-1.41 2.19-4.79 8.09-9.56 16.19-14.39 24.25-.38.64-1.13 1.48-1.72 1.49-6.35.11-12.7.07-19.43.07.61-1 1-1.73 1.42-2.4 8-12.7 16-25.41 24.09-38.07a3 3 0 0 0 0-3.81c-7.6-12.06-15.12-24.18-22.66-36.27-.39-.64-.75-1.3-1.27-2.18.78-.09 1.35-.21 1.91-.22h16.84a2.77 2.77 0 0 1 2.83 1.7c4.45 8.19 9 16.34 13.64 24.81.49-.73.87-1.24 1.18-1.78 4.33-7.65 8.69-15.29 13-23a2.94 2.94 0 0 1 3-1.75c5.83.08 11.67 0 18 0-.61 1-1 1.79-1.47 2.5-7.35 11.59-14.65 23.21-22.1 34.74-1.24 1.9-1.31 3.22-.06 5.18 8.07 12.65 16 25.4 24 38.13.42.65.77 1.31 1.42 2.42zM215.17 205.46H198v-83h17.15z" fill="#333334"/></svg>
