<svg xmlns="http://www.w3.org/2000/svg" viewBox="0 0 512 512"><path d="M287.32 371.09h-13.48v-4h13.48zm-27 0h-13.44v-4h13.48zm-27 0h-13.4v-4h13.48zM171.05 342.77l-6.74-11.68 3.46-2 6.75 11.68zm-13.48-23.36l-6.75-11.68 3.47-2 6.71 11.68zm-13.49-23.36l-6.75-11.68 3.47-2 6.74 11.68zM140.8 229.63l-3.47-2 6.75-11.63 3.46 2zm13.49-23.36l-3.47-2 6.75-11.68 3.46 2zm13.48-23.36l-3.46-2 6.74-11.68 3.47 2zM287.32 144.91h-13.48v-4h13.48zm-27 0h-13.44v-4h13.48zm-27 0h-13.4v-4h13.48zM366.88 229.59l-6.76-11.7 3.46-2 6.76 11.7zm-13.52-23.41l-6.76-11.71 3.47-2 6.76 11.71zm-13.52-23.42l-6.76-11.7 3.47-2 6.76 11.7zM336.55 343l-3.47-2 6.76-11.71 3.47 2zm13.52-23.42l-3.47-2 6.76-11.71 3.46 2zm13.51-23.41l-3.46-2 6.76-11.71 3.46 2z" fill="#333334"/><path d="M339.89 107H167.82l-86 149 86 149h172.07l86-149zm-2.31 294H170.13L86.4 256l83.73-145h167.45l83.73 145z" fill="#333334"/><path d="M384.18 242a13.76 13.76 0 0 0-5 .92l-2.09-3.62-3.47 2 2.06 3.57a14 14 0 0 0-5.38 9.13h-20l-46.51-80.56L313.87 156a14 14 0 0 0 10.41-.22l2.05 3.55 3.46-2-2.1-3.63a14 14 0 1 0-22.75-12.8h-4.14v4h4.14a14 14 0 0 0 5.43 9.17l-10 17.38h-93l-10.17-17.61a14 14 0 0 0 5.14-8.94h4.14v-4h-4.14a14 14 0 1 0-22.47 13.1l-2.07 3.59 3.47 2 2.08-3.61a13.91 13.91 0 0 0 10.38-.07l10.16 17.6-46.5 80.49h-20a14 14 0 0 0-5.36-9.12l2.06-3.57-3.46-2-2.09 3.62a13.85 13.85 0 0 0-5-.93 14 14 0 0 0 0 28 13.84 13.84 0 0 0 5-.93l2.09 3.61 3.47-2-2.1-3.56a14 14 0 0 0 5.36-9.12h20l46.5 80.52-10.16 17.61a14 14 0 0 0-10.38-.08l-2.08-3.6-3.47 2 2.07 3.59a14 14 0 1 0 22.44 13h4.14v-4h-4.14a14 14 0 0 0-5.14-8.94l10.18-17.62h93l10.05 17.39a14 14 0 0 0-5.44 9.17h-4.13v4h4.14a14 14 0 1 0 22.75-12.81l2.1-3.63-3.46-2-2.05 3.56a14 14 0 0 0-10.41-.22l-10.07-17.39L350.32 258h20a14 14 0 0 0 5.38 9.13l-2.06 3.57 3.47 2 2.09-3.62a13.76 13.76 0 0 0 5 .92 14 14 0 1 0 0-28zm-75.38-99.09a10 10 0 1 1 10 10 10 10 0 0 1-10-10zm-120.35 10a10 10 0 1 1 10-10 10 10 0 0 1-10 10zM123.5 266a10 10 0 1 1 10-10 10 10 0 0 1-10 10zm74.95 103.09a10 10 0 1 1-10-10 10 10 0 0 1 10 10zm120.35-10a10 10 0 1 1-10 10 10 10 0 0 1 10-10zm-6.71-119.45L294.5 256l17.59 16.36 2.73-2.93L302.53 258h43.17l-44.21 76.55-20.75-35.95 16.05 4.94 1.17-3.83-23-7.06-5.37 23.42 3.9.89 3.75-16.36L298 336.53h-88.34l20.74-35.93 3.75 16.4 3.9-.89-5.37-23.42-23 7.06 1.17 3.83 16.05-4.94-20.7 35.88L162 258h43.17l-12.29 11.42 2.73 2.93 17.6-16.35-17.59-16.35-2.73 2.93L205.2 254H162l44.19-76.53 16.93 29.32-16-4.94-1.17 3.83 23 7 5.37-23.41-3.9-.9-3.75 16.36-16.94-29.32H298l-16.9 29.36-3.75-16.36-3.9.9 5.37 23.41 23-7.06-1.17-3.82-16.05 4.93 16.94-29.33L345.7 254h-43.19l12.31-11.43zM384.18 266a10 10 0 1 1 10-10 10 10 0 0 1-10 10z" fill="#333334"/><path d="M253.85 294.83l-1-.66c-23.53-14.6-26.92-23.81-27.05-24.19-5.7-17.7-4.44-41.77-4.39-42.78l.08-1.47 32.41-8.27 32.41 8.27.08 1.47c.05 1 1.32 25.08-4.37 42.74-.15.42-3.53 9.63-27.06 24.23zm-28.55-65.95c-.18 5.49-.44 25.3 4.24 39.83 0 0 3.29 8.16 24.31 21.4 21-13.24 24.3-21.38 24.33-21.47 4.67-14.49 4.4-34.28 4.22-39.76l-28.55-7.29z" fill="#333334"/><path d="M256.85 276.78h-6v-6h6zm0-14h-6v-30.72h6z" fill="#333334"/></svg>
