<svg xmlns="http://www.w3.org/2000/svg" viewBox="0 0 512 512"><path d="M339.89 107H167.81l-86 149 86 149h172.08l86-149zm-2.31 294H170.12L86.4 256l83.72-145h167.46l83.72 145z" fill="#333334"/><path fill="#333334" d="M194.946 287.724l6.79-3.92 2 3.465-6.79 3.92zM184 298.35a2 2 0 0 1-1.73-1l-3-5.19 3.46-2 2 3.47c.87-.52 2-1.17 3.45-2l2 3.47-5.16 3-.26.13a2.07 2.07 0 0 1-.76.12zM167.706 272.182l3.465-2 5.765 9.985-3.465 2zM161.94 262.2l-3-5.2a2 2 0 0 1 0-2l3-5.2 3.46 2-2.4 4.2 2.42 4.2zM171.2 241.76l-3.46-2 5.8-10 3.46 2zm11.6-20.09l-3.47-2 5.8-10 3.47 2zm11.6-20.08l-3.47-2 5.8-10.05 3.46 2zM206 181.5l-3.46-2 3-5.2a2 2 0 0 1 1.73-1h6v4h-4.84zM224.79 173.3h11.53v4h-11.53zM253.85 177.3h-6v-4h4v-4h4v6a2 2 0 0 1-2 2zM251.85 155.71h4v6.8h-4zM255.85 148.91h-4v-4h-4v-4h6a2 2 0 0 1 2 2zM226.22 140.91h10.81v4h-10.81z"/><path fill="#333334" d="M218.48 276.41l-7.05 22.97-3.83-1.17 4.93-16.04-1.99 1.15-2-3.47 2-1.15-16.37-3.75.9-3.9 23.41 5.36z"/><path d="M390.32 233.91a22.72 22.72 0 0 0-15.53 1.37l-54.49-94.37h-22.42a14 14 0 1 0 0 4H318l53.33 92.38a22.87 22.87 0 0 0-.78 36.87l.77.56L318 367.09H211.33a22.89 22.89 0 0 0-9.65-16.73l2-3.54-3.46-2-2 3.55A22.85 22.85 0 1 0 210.64 375a22.53 22.53 0 0 0 .68-3.88h109l54.48-94.38a22 22 0 0 0 3.77 1.37 23.09 23.09 0 0 0 5.92.78 22.86 22.86 0 0 0 5.85-45zm-106.3-81a10 10 0 1 1 10-10 10 10 0 0 1-10.02 10zm-77.24 221a18.86 18.86 0 1 1-18.22-23.71 19 19 0 0 1 4.86.64 18.87 18.87 0 0 1 13.36 23.07zm195.87-113.06a18.89 18.89 0 0 1-18.18 14 19.05 19.05 0 0 1-4.89-.65 18.85 18.85 0 0 1-13.36-23.07 18.85 18.85 0 0 1 36.43 9.71z" fill="#333334"/><path d="M206 342.89l-3.46-2 3-5.19a2 2 0 0 1 1.73-1h6v4h-4.84zM282.84 338.7h-11.59v-4h11.59zm-23.19 0h-11.6v-4h11.6zm-23.19 0h-11.6v-4h11.6zM300.44 338.7h-6v-4h4.85l2.42-4.2 3.46 2-3 5.2a2 2 0 0 1-1.73 1zM311 322.46l-3.46-2 5.8-10 3.46 2zm11.6-20.09l-3.47-2 5.8-10 3.47 2zm11.6-20.09l-3.47-2 5.8-10 3.46 2zM345.76 262.2l-3.46-2 2.42-4.2-2.42-4.2 3.46-2 3 5.2a2 2 0 0 1 0 2zM330.766 231.828l3.464-2 5.765 9.985-3.464 2zM325 221.84l-2-3.46-3.46 2-2-3.46 5.19-3a2.07 2.07 0 0 1 1.52-.2 2 2 0 0 1 1.21.94l3 5.19zM303.952 224.787l6.79-3.919 2 3.465-6.79 3.919z" fill="#333334"/><path fill="#333334" d="M313.53 237.04l-.9 3.9-23.42-5.37 7.06-22.96 3.83 1.17-4.94 16.05 2.01-1.16 2 3.47-1.99 1.15 16.35 3.75zM211.32 140.91a22.86 22.86 0 1 0-35.88 20.71L121 256l26.3 45.56a14 14 0 1 0 8.65-3 13.78 13.78 0 0 0-5.19 1L125.57 256l53.34-92.37a23.21 23.21 0 0 0 3.75 1.36 22.86 22.86 0 0 0 28-16.19 24.25 24.25 0 0 0 .69-3.89h4.09v-4zm-55.41 161.64a10 10 0 1 1-10 10 10 10 0 0 1 10-10zm50.85-154.79a18.86 18.86 0 1 1-13.36-23.07 18.86 18.86 0 0 1 13.36 23.07z"/><path d="M191.55 157.33h-6v-6h6zm0-12h-6V129.5h6zM191.56 383.51h-6v-6h6zm0-12h-6v-15.83h6zM387.44 270.42h-6v-6h6zm0-12h-6v-15.83h6zM268.74 281.8H239L224.06 256 239 230.2h29.78l14.9 25.8zm-27.47-4h25.17L279 256l-12.58-21.8h-25.15L228.68 256z" fill="#333334"/><path d="M263.33 272.42h-19L234.89 256l9.48-16.42h19l9.44 16.42zm-16.65-4H261l7.19-12.42-7.19-12.42h-14.32L239.51 256z" fill="#333334"/></svg>
