<svg xmlns="http://www.w3.org/2000/svg" viewBox="0 0 1305.1 295.3"><style>.st0{fill:#333334}</style><path class="st0" d="M281.9 174.4c-.7 3.7 1.7 7.2 5.3 7.9 3.7.7 7.2-1.6 7.9-5.3.7-3.7-1.6-7.2-5.3-7.9s-7.1 1.6-7.9 5.3M261.5 223.7c-2.1 3.1-1.2 7.3 1.9 9.4 3.1 2.1 7.3 1.2 9.4-1.9 2.1-3.1 1.2-7.3-1.9-9.4-3.1-2-7.3-1.2-9.4 1.9M252.1 204.7c6.5 2.7 13.9-.4 16.6-6.9 2.7-6.5-.4-13.9-6.9-16.6-6.5-2.7-13.9.4-16.6 6.9-2.6 6.5.5 13.9 6.9 16.6M232.2 130.8c-9.3 0-16.9 7.6-16.9 16.9s7.6 16.9 16.9 16.9c9.3 0 16.9-7.6 16.9-16.9s-7.6-16.9-16.9-16.9M232 112.7c-1.4-3.4-5.4-5.1-8.8-3.7-3.4 1.4-5.1 5.4-3.7 8.8 1.4 3.4 5.4 5.1 8.8 3.7 3.5-1.4 5.1-5.3 3.7-8.8M219.5 177.4c-1.4 3.5.2 7.4 3.7 8.8 3.4 1.4 7.4-.2 8.8-3.7 1.4-3.4-.2-7.4-3.7-8.8s-7.4.3-8.8 3.7M227.1 241.5c4 4 10.4 4 14.3 0 4-4 4-10.4 0-14.3-4-4-10.4-4-14.3 0-3.9 3.9-3.9 10.3 0 14.3M221.9 270.9c2.1 3.1 6.3 3.9 9.4 1.9 3.1-2.1 3.9-6.3 1.9-9.4-2.1-3.1-6.3-3.9-9.4-1.9-3.2 2.1-4 6.3-1.9 9.4M195.5 219.4c6.6 6.6 17.3 6.6 23.9 0 6.6-6.6 6.6-17.3 0-23.9s-17.3-6.6-23.9 0c-6.6 6.6-6.6 17.3 0 23.9M177.4 75.8c3.4 1.4 7.4-.2 8.8-3.7s-.2-7.4-3.7-8.8c-3.4-1.4-7.4.2-8.8 3.7-1.4 3.5.3 7.4 3.7 8.8M177.4 219.5c-3.4 1.4-5.1 5.4-3.7 8.8 1.4 3.5 5.4 5.1 8.8 3.7s5.1-5.4 3.7-8.8-5.3-5.1-8.8-3.7M189.7 116.6c-6.5 2.7-9.5 10.1-6.9 16.6 2.7 6.5 10.1 9.5 16.6 6.9 6.5-2.7 9.5-10.1 6.9-16.6-2.8-6.6-10.2-9.6-16.6-6.9M199.4 155.4c-6.5-2.7-13.9.4-16.6 6.9-2.7 6.5.4 13.9 6.9 16.6 6.5 2.7 13.9-.4 16.6-6.9 2.6-6.5-.5-14-6.9-16.6M181.2 261.8c2.7 6.5 10.1 9.5 16.6 6.9 6.5-2.7 9.5-10.1 6.9-16.6-2.7-6.5-10.1-9.5-16.6-6.9-6.5 2.7-9.5 10.2-6.9 16.6M169.1 289.9c.7 3.7 4.3 6 7.9 5.3 3.7-.7 6-4.3 5.3-7.9s-4.3-6-7.9-5.3c-3.7.7-6.1 4.2-5.3 7.9M171.9 206.2c6.5-2.7 9.5-10.1 6.9-16.6-2.7-6.5-10.1-9.5-16.6-6.9-6.5 2.7-9.5 10.1-6.9 16.6 2.7 6.5 10.2 9.6 16.6 6.9M137.5 270.2c0 5.6 4.5 10.1 10.1 10.1s10.1-4.5 10.1-10.1-4.5-10.1-10.1-10.1c-5.5 0-10.1 4.5-10.1 10.1M130.8 232.2c0 9.3 7.6 16.9 16.9 16.9 9.3 0 16.9-7.6 16.9-16.9s-7.6-16.9-16.9-16.9c-9.4 0-16.9 7.5-16.9 16.9M123.4 206.2c6.5 2.7 13.9-.4 16.6-6.9 2.7-6.5-.4-13.9-6.9-16.6-6.5-2.7-13.9.4-16.6 6.9-2.6 6.5.4 13.9 6.9 16.6M96 140c6.5 2.7 13.9-.4 16.6-6.9 2.7-6.5-.4-13.9-6.9-16.6-6.5-2.7-13.9.4-16.6 6.9-2.7 6.5.4 13.9 6.9 16.6M89.1 171.9c2.7 6.5 10.1 9.5 16.6 6.9 6.5-2.7 9.5-10.1 6.9-16.6-2.7-6.5-10.1-9.5-16.6-6.9-6.5 2.7-9.6 10.2-6.9 16.6M109.1 72.2c1.4 3.4 5.4 5.1 8.8 3.7 3.4-1.4 5.1-5.4 3.7-8.8-1.4-3.5-5.4-5.1-8.8-3.7-3.5 1.4-5.1 5.3-3.7 8.8M117.9 219.5c-3.4-1.4-7.4.2-8.8 3.7-1.4 3.4.2 7.4 3.7 8.8s7.4-.2 8.8-3.7c1.4-3.4-.2-7.4-3.7-8.8M113 287.3c-.7 3.7 1.7 7.2 5.3 7.9 3.7.7 7.2-1.6 7.9-5.3.7-3.7-1.7-7.2-5.3-7.9-3.6-.8-7.2 1.6-7.9 5.3M90.7 252.1c-2.7 6.5.4 13.9 6.9 16.6 6.5 2.7 13.9-.4 16.6-6.9 2.7-6.5-.4-13.9-6.9-16.6-6.5-2.6-13.9.5-16.6 6.9M76 219.4c6.6 6.6 17.3 6.6 23.9 0 6.6-6.6 6.6-17.3 0-23.9-6.6-6.6-17.3-6.6-23.9 0s-6.6 17.3 0 23.9M80.1 147.7c0-9.3-7.6-16.9-16.9-16.9-9.3 0-16.9 7.6-16.9 16.9s7.6 16.9 16.9 16.9c9.3 0 16.9-7.6 16.9-16.9M75.8 117.9c1.4-3.5-.2-7.4-3.7-8.8-3.5-1.4-7.4.2-8.8 3.7-1.4 3.4.2 7.4 3.7 8.8 3.5 1.4 7.4-.2 8.8-3.7M63.3 182.6c1.4 3.5 5.4 5.1 8.8 3.7 3.4-1.4 5.1-5.4 3.7-8.8-1.4-3.4-5.4-5.1-8.8-3.7s-5.1 5.3-3.7 8.8M62.2 263.4c-2.1 3.1-1.2 7.3 1.9 9.4 3.1 2.1 7.3 1.2 9.4-1.9 2.1-3.1 1.2-7.3-1.9-9.4-3.1-2.1-7.3-1.2-9.4 1.9M53.8 227.1c-4 4-4 10.4 0 14.3 4 4 10.4 4 14.3 0 4-4 4-10.4 0-14.3-3.9-3.9-10.3-3.9-14.3 0M43.2 204.7c6.5-2.7 9.5-10.1 6.9-16.6-2.7-6.5-10.1-9.5-16.6-6.9-6.5 2.7-9.5 10.1-6.9 16.6 2.7 6.5 10.1 9.5 16.6 6.9M22.6 231.2c2.1 3.1 6.3 3.9 9.4 1.9 3.1-2.1 3.9-6.3 1.9-9.4-2.1-3.1-6.3-3.9-9.4-1.9-3.1 2.1-4 6.3-1.9 9.4M13.4 121c.7-3.7-1.7-7.2-5.3-8-3.7-.7-7.2 1.7-8 5.3-.7 3.7 1.7 7.2 5.3 7.9 3.7.8 7.3-1.6 8-5.2M13.4 174.4c-.7-3.7-4.3-6-7.9-5.3s-6 4.3-5.3 7.9c.7 3.7 4.3 6 8 5.3 3.5-.7 5.9-4.3 5.2-7.9M25.1 137.5c-5.6 0-10.1 4.5-10.1 10.1s4.5 10.1 10.1 10.1 10.1-4.5 10.1-10.1c.1-5.5-4.5-10.1-10.1-10.1M33.8 71.6c2.1-3.1 1.2-7.3-1.9-9.4-3.1-2.1-7.3-1.2-9.4 1.9-2.1 3.1-1.2 7.3 1.9 9.4 3.2 2 7.4 1.2 9.4-1.9M43.2 90.7c-6.5-2.7-13.9.4-16.6 6.9-2.7 6.5.4 13.9 6.9 16.6 6.5 2.7 13.9-.4 16.6-6.9 2.7-6.5-.4-13.9-6.9-16.6M68.2 53.8c-4-4-10.4-4-14.3 0-4 4-4 10.4 0 14.3 4 4 10.4 4 14.3 0 4-3.9 4-10.3 0-14.3M73.5 24.5c-2.1-3.1-6.3-3.9-9.4-1.9-3.1 2.1-3.9 6.3-1.9 9.4 2.1 3.1 6.3 3.9 9.4 1.9 3.1-2.1 3.9-6.3 1.9-9.4M99.9 76c-6.6-6.6-17.3-6.6-23.9 0-6.6 6.6-6.6 17.3 0 23.9 6.6 6.6 17.3 6.6 23.9 0 6.6-6.6 6.6-17.3 0-23.9M114.1 33.5C111.4 27 104 24 97.5 26.6 91 29.3 88 36.7 90.6 43.2c2.7 6.5 10.1 9.5 16.6 6.9 6.5-2.7 9.6-10.1 6.9-16.6M126.3 5.4c-.7-3.7-4.3-6-7.9-5.3-3.7.7-6 4.3-5.3 7.9.7 3.7 4.3 6 7.9 5.3 3.6-.6 6-4.2 5.3-7.9M123.4 89.1c-6.5 2.7-9.5 10.1-6.9 16.6 2.7 6.5 10.1 9.5 16.6 6.9 6.5-2.7 9.5-10.1 6.9-16.6-2.7-6.5-10.1-9.6-16.6-6.9M157.8 25.1c0-5.6-4.5-10.1-10.1-10.1s-10.1 4.5-10.1 10.1 4.5 10.1 10.1 10.1c5.6.1 10.1-4.5 10.1-10.1M164.6 63.2c0-9.3-7.6-16.9-16.9-16.9-9.3 0-16.9 7.6-16.9 16.9s7.6 16.9 16.9 16.9c9.3 0 16.9-7.6 16.9-16.9M171.9 89.1c-6.5-2.7-13.9.4-16.6 6.9-2.7 6.5.4 13.9 6.9 16.6 6.5 2.7 13.9-.4 16.6-6.9 2.7-6.5-.4-13.9-6.9-16.6M182.3 8.1c.7-3.7-1.6-7.2-5.3-7.9-3.7-.7-7.2 1.6-7.9 5.3-.7 3.7 1.6 7.2 5.3 7.9 3.6.7 7.2-1.7 7.9-5.3M204.7 43.2c2.7-6.5-.4-13.9-6.9-16.6s-13.9.4-16.6 6.9c-2.7 6.5.4 13.9 6.9 16.6 6.5 2.7 13.9-.4 16.6-6.9M219.4 76c-6.6-6.6-17.3-6.6-23.9 0-6.6 6.6-6.6 17.3 0 23.9 6.6 6.6 17.3 6.6 23.9 0 6.6-6.6 6.6-17.3 0-23.9M233.1 32c2.1-3.1 1.2-7.3-1.9-9.4-3.1-2.1-7.3-1.2-9.4 1.9-2.1 3.1-1.2 7.3 1.9 9.4 3.1 2 7.3 1.2 9.4-1.9M241.5 68.2c4-4 4-10.4 0-14.3-4-4-10.4-4-14.3 0-4 4-4 10.4 0 14.3 3.9 4 10.3 4 14.3 0M252.1 90.7c-6.5 2.7-9.5 10.1-6.9 16.6 2.7 6.5 10.1 9.5 16.6 6.9 6.5-2.7 9.5-10.1 6.9-16.6-2.7-6.5-10.1-9.6-16.6-6.9M272.7 64.1c-2.1-3.1-6.3-3.9-9.4-1.9-3.1 2.1-3.9 6.3-1.9 9.4 2.1 3.1 6.3 3.9 9.4 1.9 3.2-2.1 4-6.3 1.9-9.4M280.4 147.7c0-5.6-4.5-10.1-10.1-10.1s-10.1 4.5-10.1 10.1 4.5 10.1 10.1 10.1c5.5 0 10.1-4.5 10.1-10.1M295.2 118.3c-.7-3.7-4.3-6-7.9-5.3-3.7.7-6 4.3-5.3 8 .7 3.7 4.3 6 8 5.3 3.6-.8 5.9-4.3 5.2-8M479.9 214.5v15h-116v-164h112.5v15h-95.1v58.3h84.8v14.8h-84.8v60.9h98.6zM593.3 113.2c9.4 5.2 16.7 12.6 22 22.1 5.3 9.5 8 20.4 8 32.6 0 12.3-2.7 23.3-8 32.8-5.3 9.5-12.6 16.9-21.9 22.1-9.3 5.2-19.8 7.8-31.5 7.8-10 0-19-2.1-27.1-6.2-8-4.1-14.6-10.2-19.8-18.2V275h-16.6V106.3h15.9v24.4c5-8.1 11.6-14.4 19.8-18.7 8.2-4.4 17.5-6.6 27.8-6.6 11.6 0 22.1 2.6 31.4 7.8zm-9.1 96.8c7-4 12.5-9.6 16.5-17 4-7.3 6-15.7 6-25.1 0-9.4-2-17.7-6-25-4-7.3-9.5-12.9-16.5-17s-14.8-6.1-23.4-6.1c-8.8 0-16.6 2-23.5 6.1-7 4.1-12.4 9.7-16.4 17-4 7.3-6 15.6-6 25s2 17.7 6 25.1c4 7.3 9.4 13 16.4 17 6.9 4 14.8 6 23.5 6 8.6 0 16.4-2 23.4-6zM638.3 75.8c-2.3-2.3-3.5-5.2-3.5-8.4 0-3.1 1.2-5.9 3.5-8.2 2.3-2.3 5.2-3.5 8.7-3.5 3.4 0 6.3 1.1 8.7 3.4 2.3 2.3 3.5 5 3.5 8.1 0 3.4-1.2 6.3-3.5 8.7-2.3 2.3-5.2 3.5-8.7 3.5-3.4-.1-6.3-1.2-8.7-3.6zm.3 30.5h16.6v123.3h-16.6V106.3zM768.7 113.2c9.4 5.2 16.7 12.6 22 22.1 5.3 9.5 8 20.4 8 32.6 0 12.3-2.7 23.3-8 32.8-5.3 9.5-12.6 16.9-21.9 22.1-9.3 5.2-19.8 7.8-31.5 7.8-10 0-19-2.1-27.1-6.2-8-4.1-14.6-10.2-19.8-18.2V275h-16.6V106.3h15.9v24.4c5-8.1 11.6-14.4 19.8-18.7 8.2-4.4 17.5-6.6 27.8-6.6 11.6 0 22 2.6 31.4 7.8zm-9.1 96.8c7-4 12.5-9.6 16.5-17 4-7.3 6-15.7 6-25.1 0-9.4-2-17.7-6-25-4-7.3-9.5-12.9-16.5-17s-14.8-6.1-23.4-6.1c-8.8 0-16.6 2-23.5 6.1-7 4.1-12.4 9.7-16.4 17-4 7.3-6 15.6-6 25s2 17.7 6 25.1c4 7.3 9.4 13 16.4 17 6.9 4 14.8 6 23.5 6 8.5 0 16.4-2 23.4-6zM913.6 118.8c9.1 9 13.7 22.1 13.7 39.2v71.5h-16.6v-69.8c0-12.8-3.2-22.6-9.6-29.3-6.4-6.7-15.5-10.1-27.4-10.1-13.3 0-23.8 3.9-31.5 11.8-7.7 7.9-11.6 18.8-11.6 32.7v64.7H814V55.7h16.6v72.2c4.5-7.2 10.8-12.7 18.7-16.6 8-3.9 17.1-5.9 27.4-5.9 15.5 0 27.8 4.4 36.9 13.4zM1034 117.4c8.6 8 12.9 20 12.9 35.7v76.4H1031v-19.2c-3.7 6.4-9.3 11.4-16.5 15-7.3 3.6-15.9 5.4-25.9 5.4-13.7 0-24.7-3.3-32.8-9.8-8.1-6.6-12.2-15.2-12.2-26 0-10.5 3.8-18.9 11.4-25.3 7.6-6.4 19.6-9.6 36.2-9.6h39.1v-7.5c0-10.6-3-18.7-8.9-24.3-5.9-5.5-14.6-8.3-26-8.3-7.8 0-15.3 1.3-22.5 3.9-7.2 2.6-13.4 6.1-18.5 10.7l-7.5-12.4c6.2-5.3 13.7-9.4 22.5-12.3 8.7-2.9 18-4.3 27.6-4.3 16-.1 28.4 3.9 37 11.9zm-18.8 93.8c6.7-4.3 11.7-10.5 15-18.6v-20.2h-38.7c-21.1 0-31.6 7.3-31.6 22 0 7.2 2.7 12.9 8.2 17 5.5 4.1 13.1 6.2 23 6.2 9.4 0 17.4-2.2 24.1-6.4zM1163.7 118.8c9.1 9 13.7 22.1 13.7 39.2v71.5h-16.6v-69.8c0-12.8-3.2-22.6-9.6-29.3-6.4-6.7-15.5-10.1-27.4-10.1-13.3 0-23.8 3.9-31.5 11.8-7.7 7.9-11.6 18.8-11.6 32.7v64.7H1064V106.3h15.9V129c4.5-7.5 10.8-13.3 18.9-17.5 8-4.1 17.4-6.2 28-6.2 15.4.1 27.7 4.5 36.9 13.5zm141.4-12.5l-61.6 138c-5 11.6-10.8 19.8-17.3 24.6-6.6 4.8-14.5 7.3-23.7 7.3-5.9 0-11.5-.9-16.6-2.8-5.2-1.9-9.6-4.7-13.4-8.4l7.7-12.4c6.2 6.2 13.7 9.4 22.5 9.4 5.6 0 10.4-1.6 14.4-4.7s7.7-8.4 11.1-15.9l5.4-12-55.1-123h17.3l46.4 104.7 46.4-104.7h16.5z"/></svg>
