<svg xmlns="http://www.w3.org/2000/svg" viewBox="0 0 28 28"><style>.st0{fill:#333334}</style><path class="st0" d="M26.7 16.5c-.1.3.2.7.5.8.3.1.7-.2.8-.5.1-.3-.2-.7-.5-.8-.4 0-.7.2-.8.5M24.8 21.2c-.2.3-.1.7.2.9.3.2.7.1.9-.2.2-.3.1-.7-.2-.9-.3-.2-.7-.1-.9.2M23.9 19.4c.6.3 1.3 0 1.6-.7.3-.6 0-1.3-.7-1.6-.6-.3-1.3 0-1.6.7-.2.6.1 1.3.7 1.6M22 12.4c-.9 0-1.6.7-1.6 1.6 0 .9.7 1.6 1.6 1.6.9 0 1.6-.7 1.6-1.6 0-.9-.7-1.6-1.6-1.6M22 10.7c-.1-.3-.5-.5-.8-.3-.3.1-.5.5-.3.8.1.3.5.5.8.3.3-.1.4-.5.3-.8M20.8 16.8c-.1.3 0 .7.3.8.3.1.7 0 .8-.3.1-.3 0-.7-.3-.8-.3-.2-.7 0-.8.3M21.5 22.9c.4.4 1 .4 1.4 0 .4-.4.4-1 0-1.4-.4-.4-1-.4-1.4 0-.3.4-.3 1 0 1.4M21 25.7c.2.3.6.4.9.2.3-.2.4-.6.2-.9-.2-.3-.6-.4-.9-.2-.3.2-.4.6-.2.9M18.5 20.8c.6.6 1.6.6 2.3 0 .6-.6.6-1.6 0-2.3s-1.6-.6-2.3 0c-.6.7-.6 1.7 0 2.3M16.8 7.2c.3.1.7 0 .8-.3s0-.7-.3-.8-.7 0-.8.3c-.2.3 0 .7.3.8M16.8 20.8c-.3.1-.5.5-.3.8.1.3.5.5.8.3s.5-.5.3-.8-.5-.4-.8-.3M18 11c-.6.3-.9 1-.7 1.6.3.6 1 .9 1.6.7.6-.3.9-1 .7-1.6-.3-.6-1-.9-1.6-.7M18.9 14.7c-.6-.3-1.3 0-1.6.7-.3.6 0 1.3.7 1.6.6.3 1.3 0 1.6-.7.2-.6-.1-1.3-.7-1.6M17.2 24.8c.3.6 1 .9 1.6.7.6-.3.9-1 .7-1.6-.3-.6-1-.9-1.6-.7-.7.3-1 1-.7 1.6M16 27.5c.1.3.4.6.8.5.3-.1.6-.4.5-.8-.1-.3-.4-.6-.8-.5-.3.1-.5.4-.5.8M16.3 19.6c.6-.3.9-1 .7-1.6-.3-.6-1-.9-1.6-.7-.6.3-.9 1-.7 1.6.3.6 1 .9 1.6.7M13 25.6c0 .5.4 1 1 1 .5 0 1-.4 1-1 0-.5-.4-1-1-1-.5.1-1 .5-1 1M12.4 22c0 .9.7 1.6 1.6 1.6.9 0 1.6-.7 1.6-1.6s-.7-1.6-1.6-1.6c-.9 0-1.6.7-1.6 1.6M11.7 19.6c.6.3 1.3 0 1.6-.7.3-.6 0-1.3-.7-1.6-.6-.3-1.3 0-1.6.7-.2.6.1 1.3.7 1.6M9.1 13.3c.6.3 1.3 0 1.6-.7.3-.6 0-1.3-.7-1.6-.6-.3-1.3 0-1.6.7-.2.6.1 1.3.7 1.6M8.4 16.3c.3.6 1 .9 1.6.7.6-.3.9-1 .7-1.6-.3-.6-1-.9-1.6-.7-.6.3-.9 1-.7 1.6M10.3 6.8c.1.3.5.5.8.3.3-.1.5-.5.3-.8 0-.3-.4-.4-.7-.3s-.5.5-.4.8M11.2 20.8c-.3-.1-.7 0-.8.3-.1.3 0 .7.3.8s.7 0 .8-.3c.2-.3 0-.7-.3-.8M10.7 27.2c-.1.3.2.7.5.8.3.1.7-.2.8-.5.1-.3-.2-.7-.5-.8-.4 0-.7.2-.8.5M8.6 23.9c-.3.6 0 1.3.7 1.6.6.3 1.3 0 1.6-.7.3-.6 0-1.3-.7-1.6-.6-.2-1.3.1-1.6.7M7.2 20.8c.6.6 1.6.6 2.3 0 .6-.6.6-1.6 0-2.3-.6-.6-1.6-.6-2.3 0s-.6 1.7 0 2.3M7.6 14c0-.9-.7-1.6-1.6-1.6-.9 0-1.6.7-1.6 1.6 0 .9.7 1.6 1.6 1.6.9 0 1.6-.7 1.6-1.6M7.2 11.2c.1-.3 0-.7-.3-.8-.3-.1-.7 0-.8.3-.1.3 0 .7.3.8.3.2.7 0 .8-.3M6 17.3c.1.3.5.5.8.3.3-.1.5-.5.3-.8-.1-.3-.5-.5-.8-.3-.3.1-.4.5-.3.8M5.9 25c-.2.3-.1.7.2.9.3.2.7.1.9-.2.2-.3.1-.7-.2-.9-.3-.2-.7-.1-.9.2M5.1 21.5c-.4.4-.4 1 0 1.4.4.4 1 .4 1.4 0 .4-.4.4-1 0-1.4-.4-.3-1-.3-1.4 0M4.1 19.4c.6-.3.9-1 .7-1.6-.3-.6-1-.9-1.6-.7-.6.3-.9 1-.7 1.6.3.7 1 1 1.6.7M2.1 21.9c.2.3.6.4.9.2.3-.2.4-.6.2-.9-.2-.3-.6-.4-.9-.2-.3.2-.4.6-.2.9M1.3 11.5c.1-.3-.2-.7-.5-.8-.3-.1-.7.2-.8.5-.1.3.2.7.5.8s.7-.2.8-.5M1.3 16.5c-.1-.3-.4-.5-.8-.5-.3.1-.6.4-.5.8.1.3.4.6.8.5.3-.1.5-.4.5-.8M2.4 13c-.5 0-1 .4-1 1 0 .5.4 1 1 1s1-.4 1-1c-.1-.5-.5-1-1-1M3.2 6.8c.2-.3.1-.7-.2-.9-.3-.2-.7-.1-.9.2-.2.3-.1.7.2.9.3.2.7.1.9-.2M4.1 8.6c-.6-.3-1.3 0-1.6.7-.3.6 0 1.3.7 1.6.6.3 1.3 0 1.6-.7.2-.6-.1-1.3-.7-1.6M6.5 5.1c-.4-.4-1-.4-1.4 0-.4.4-.4 1 0 1.4s1 .4 1.4 0c.3-.4.3-1 0-1.4M7 2.3c-.2-.3-.6-.4-.9-.2-.3.2-.4.6-.2.9.2.3.6.4.9.2.3-.2.4-.6.2-.9M9.5 7.2c-.6-.6-1.6-.6-2.3 0s-.6 1.6 0 2.3c.6.6 1.6.6 2.3 0 .6-.7.6-1.7 0-2.3M10.8 3.2c-.3-.6-1-.9-1.6-.7-.6.3-.9 1-.7 1.6.3.6 1 .9 1.6.7.7-.3 1-1 .7-1.6M12 .5c-.1-.3-.4-.6-.8-.5-.3.1-.6.4-.5.8.1.3.4.6.8.5.3-.1.5-.4.5-.8M11.7 8.4c-.6.3-.9 1-.7 1.6.3.6 1 .9 1.6.7.6-.3.9-1 .7-1.6-.3-.6-1-.9-1.6-.7M15 2.4c0-.5-.4-1-1-1-.5 0-1 .4-1 1 0 .5.4 1 1 1 .5-.1 1-.5 1-1M15.6 6c0-.9-.7-1.6-1.6-1.6-.9 0-1.6.7-1.6 1.6s.7 1.6 1.6 1.6c.9 0 1.6-.7 1.6-1.6M16.3 8.4c-.6-.3-1.3 0-1.6.7-.3.6 0 1.3.7 1.6.6.3 1.3 0 1.6-.7.2-.6-.1-1.3-.7-1.6M17.3.8c.1-.3-.2-.7-.5-.8-.3-.1-.7.2-.8.5-.1.3.2.7.5.8.4 0 .7-.2.8-.5M19.4 4.1c.3-.6 0-1.3-.7-1.6s-1.3 0-1.6.7c-.3.6 0 1.3.7 1.6.6.2 1.3-.1 1.6-.7M20.8 7.2c-.6-.6-1.6-.6-2.3 0-.6.6-.6 1.6 0 2.3.6.6 1.6.6 2.3 0 .6-.7.6-1.7 0-2.3M22.1 3c.2-.3.1-.7-.2-.9-.3-.2-.7-.1-.9.2-.2.3-.1.7.2.9.3.2.7.1.9-.2M22.9 6.5c.4-.4.4-1 0-1.4-.4-.4-1-.4-1.4 0-.4.4-.4 1 0 1.4s1 .3 1.4 0M23.9 8.6c-.6.3-.9 1-.7 1.6.3.6 1 .9 1.6.7.6-.3.9-1 .7-1.6-.3-.7-1-1-1.6-.7M25.9 6.1c-.2-.3-.6-.4-.9-.2-.3.2-.4.6-.2.9.2.3.6.4.9.2.3-.2.4-.6.2-.9M26.6 14c0-.5-.4-1-1-1-.5 0-1 .4-1 1 0 .5.4 1 1 1 .5 0 1-.5 1-1M28 11.2c-.1-.3-.4-.6-.8-.5-.3.1-.6.4-.5.8.1.3.4.6.8.5s.6-.4.5-.8"/></svg>
