<svg xmlns="http://www.w3.org/2000/svg" viewBox="0 0 430 430"><path d="M48.14 104.24a11.25 11.25 0 0 1 1-1.18 8.64 8.64 0 0 0-1 1.18zM380 108.81c-.31-7-6.31-9.2-13.23-11.7-4.11-1.48-10.12-3.52-17.85-6.06-12.9-4.22-30.87-9.9-53.42-16.9-38.33-11.89-77.17-23.61-77.55-23.73a10 10 0 0 0-5.92 0L57 99.88a9 9 0 0 0-1.53.64 6.61 6.61 0 0 0-.63.35c-.23.14-.45.29-.66.44l-.58.46-.58.54a10.13 10.13 0 0 0-1 1.17 7.31 7.31 0 0 0-.43.65 11.28 11.28 0 0 0-.72 1.38 7.46 7.46 0 0 0-.31.83c-.06.21-.12.42-.17.63s-.14.62-.19.94c0 .15 0 .31-.06.48v212.22a10 10 0 0 0 6.86 9.52l154.85 49.35a10.32 10.32 0 0 0 1.64.4 11 11 0 0 0 1.51.12 7.72 7.72 0 0 0 1-.05l.59-.07a9.92 9.92 0 0 0 1.48-.35h.17L373 330.13a10 10 0 0 0 7-9.52V109.4v-.59zM70 313.31V123.06l135 43.05v190.24zm145-165L92.9 109.39l122.21-38.95C253.42 82 307.2 98.53 338.93 108.82zm145 165l-135 43v-190.2l135-43.05z" fill="#333334"/></svg>
