<svg xmlns="http://www.w3.org/2000/svg" viewBox="0 0 430 430"><path d="M355.39 160.92a150.47 150.47 0 0 0-280.78 0c-44.52 13.46-68 32.29-68 54.58 0 21.72 22.51 40.29 65.11 53.69 1.1.35 2.21.69 3.34 1a150.47 150.47 0 0 0 279.9 0c1.12-.34 2.24-.68 3.34-1 42.6-13.4 65.11-32 65.11-53.69-.01-22.29-23.5-41.12-68.02-54.58zM26.6 215.5c0-7.92 11.09-20.19 41.13-31.21a151.7 151.7 0 0 0 .27 62.55C41.21 237 26.6 225.39 26.6 215.5zm58-.5a130.41 130.41 0 1 1 255 38.82c-31.6 8.35-73.82 14.12-124.6 14.12s-93-5.77-124.55-14.12A130.53 130.53 0 0 1 84.59 215zm222.63 92.21A130.59 130.59 0 0 1 100 276.63c33.63 7.36 73.39 11.31 115 11.31s81.37-3.95 115-11.31a131.08 131.08 0 0 1-22.78 30.58zM362 246.84a151.7 151.7 0 0 0 .24-62.55c30 11 41.13 23.29 41.13 31.21.03 9.89-14.58 21.5-41.37 31.34z" fill="#333334"/></svg>
