<svg xmlns="http://www.w3.org/2000/svg" viewBox="0 0 512 512"><path d="M255.08 404.4h.77zm-3.23 0h.76zM252.61 404.4h-.76zM255.85 404.37h-.77zM130.58 166.47c-.5.67-1 1.35-1.46 2a14.49 14.49 0 0 1 1.38-2.09zM378.56 168.47c-.41-.58-.82-1.15-1.24-1.72l.09-.07a13.16 13.16 0 0 1 1.15 1.79zM60.81 234.33l-2.55-3.08a80.25 80.25 0 0 1 8.08-5.83l2.15 3.37a78.21 78.21 0 0 0-7.68 5.54zm16-10.3l-1.85-3.54c2.78-1.45 5.77-2.88 8.89-4.25l1.61 3.66a158.53 158.53 0 0 0-8.69 4.1zM60.05 256a14 14 0 0 0-7.79-12.54c.57-.86 1.22-1.72 1.91-2.57l-3.09-2.54a39.69 39.69 0 0 0-2.77 3.83 14 14 0 1 0 0 27.64 35.31 35.31 0 0 0 2.76 3.82l3.09-2.53c-.69-.85-1.33-1.71-1.9-2.57A14 14 0 0 0 60.05 256zm-14 10a10 10 0 1 1 10-10 10 10 0 0 1-10 10zM461.65 242a14.07 14.07 0 0 0-2.26.18 37.73 37.73 0 0 0-2.95-4.05l-3.07 2.56c.75.92 1.45 1.84 2.08 2.76a14 14 0 0 0 0 25.09 32.65 32.65 0 0 1-2.23 2.95l3.06 2.58a38.43 38.43 0 0 0 3.12-4.25 14 14 0 1 0 2.25-27.82zm0 24a10 10 0 1 1 10-10 10 10 0 0 1-10 10zM446.64 234.12a78.26 78.26 0 0 0-7.77-5.55l2.13-3.38a81.89 81.89 0 0 1 8.17 5.84zm-16.14-10.31c-2.73-1.41-5.67-2.8-8.74-4.14l1.6-3.67c3.15 1.37 6.17 2.81 9 4.26zM423.31 296l-1.6-3.66c3.06-1.34 6-2.72 8.69-4.12l1.83 3.56c-2.78 1.45-5.79 2.87-8.92 4.22zm17.55-9.12l-2.13-3.39a79 79 0 0 0 7.75-5.5l2.52 3.1a81.22 81.22 0 0 1-8.14 5.81zM366.78 308.83c-3.81.78-7.75 1.53-11.7 2.23l.7 3.94c4-.71 8-1.47 11.8-2.25zM319.67 316c-3.88.41-7.88.79-11.87 1.13l.34 4c4-.34 8-.72 11.95-1.14zm-23.76 2c-4 .25-8 .48-11.92.66l.19 4c4-.18 8-.4 12-.66zM212 318l-.25 4c4 .25 8.05.48 12.11.66l.18-4c-4.04-.16-8.04-.38-12.04-.66zm-24-2l-.42 4c4 .42 8 .8 12.08 1.15l.34-4c-4-.36-8.06-.74-12-1.15zm-47.6-7.27l-.81 3.92c3.9.8 7.92 1.57 11.93 2.28l.7-3.94c-3.98-.71-7.95-1.47-11.82-2.27z" fill="#333334"/><path d="M412.76 296l-4 1.47a14.13 14.13 0 0 0-6.61-6.1 153.4 153.4 0 0 0 .14-70 14 14 0 0 0 6.82-6.64c1.25.44 2.48.89 3.66 1.34l1.41-3.75c-1.24-.46-2.53-.94-3.85-1.4a14.08 14.08 0 0 0-13.87-16.44 14 14 0 0 0-3 .33 153.16 153.16 0 0 0-14.85-26.29c-.41-.58-.82-1.15-1.24-1.72A152.26 152.26 0 0 0 255 103.59h-2.34a152.25 152.25 0 0 0-122.1 62.88c-.5.67-1 1.35-1.46 2a152 152 0 0 0-14.88 26.38 14.1 14.1 0 0 0-17.61 13.65 14.31 14.31 0 0 0 .23 2.55c-1.33.49-2.65 1-3.93 1.46l1.42 3.74c1.24-.47 2.51-.94 3.79-1.4a14 14 0 0 0 7.25 6.69 153.35 153.35 0 0 0 .14 69.59 14 14 0 0 0-7 6.15c-1.36-.49-2.69-1-4-1.48l-1.42 3.74c1.31.5 2.64 1 4 1.46a13.56 13.56 0 0 0-.36 3.14 14 14 0 0 0 17.74 13.49 152.27 152.27 0 0 0 138.12 90.77h2.52a152.21 152.21 0 0 0 138.11-90.64 13.73 13.73 0 0 0 3.23.38 14 14 0 0 0 14-14 13.58 13.58 0 0 0-.32-2.94c1.38-.49 2.74-1 4-1.48zm-16.31-97.55a10.08 10.08 0 0 1 4.84 18.92 150.49 150.49 0 0 0-6.29-18.84 9.77 9.77 0 0 1 1.45-.1zm-17.36-22A147.52 147.52 0 0 1 402.26 256c0 9.6-21.18 19.61-57.08 26.12a252.47 252.47 0 0 0 1.34-26.12 239.56 239.56 0 0 0-7.36-59.79l2.75-.63c15.45-3.64 33.56-9.8 37.18-19.14zm-4-5.95a5.67 5.67 0 0 1 .65 2.54c0 6.77-13.93 13.95-37.65 19.22a176.63 176.63 0 0 0-18.42-43.64c-11-18.28-24.36-31.39-39-38.6a148.68 148.68 0 0 1 94.42 60.47zm-119.24-62.88c34.61 1.28 64.4 35.94 78.3 85.47-20.39 4.16-47.27 6.95-78.3 7.06zm0 96.53c29.44-.1 57.25-2.61 79.37-7.11a235.31 235.31 0 0 1 7.3 59 245.15 245.15 0 0 1-1.46 26.84c-23.23 3.93-52.16 6.42-85.21 6.52zm0 89.2c29.61-.09 59.49-2.36 84.74-6.52a223.16 223.16 0 0 1-5.15 27.27l-3.93.52.51 4 2.3-.3a172 172 0 0 1-18.61 43.93 466.72 466.72 0 0 1-59.86 3.86v-30.9a14 14 0 0 0 11.94-12l4.39-.11-.11-4-4.32.11a14 14 0 0 0-11.9-11.72zM240 323.21a14 14 0 0 0 11.82 12v30.88a465.18 465.18 0 0 1-59.82-3.88 172.4 172.4 0 0 1-18.6-43.92l2.14.28.5-4-3.76-.49a223.32 223.32 0 0 1-5.15-27.28c25.25 4.16 55.13 6.43 84.73 6.52v14.18a14 14 0 0 0-11.78 11.71l-4-.09-.11 4zm-73.38-40.37a245.15 245.15 0 0 1-1.43-26.84 235.23 235.23 0 0 1 7.3-58.95c22.13 4.49 49.92 7 79.36 7.1v85.21c-33.04-.1-61.97-2.59-85.2-6.52zm6.91-89.75c13.9-49.53 43.68-84.19 78.29-85.47v92.53c-31-.15-57.82-2.9-78.26-7.06zm-40.92-22.59A148.77 148.77 0 0 1 227 110c-14.6 7.21-27.94 20.32-38.95 38.59a176.63 176.63 0 0 0-18.42 43.64C145.89 187 132 179.8 132 173a5.63 5.63 0 0 1 .61-2.5zm-32 38a10.08 10.08 0 0 1 10.07-10.07 9.89 9.89 0 0 1 2 .19 149.15 149.15 0 0 0-6.3 19 10 10 0 0 1-5.77-9.12zm4.83 47.5a147.52 147.52 0 0 1 23.17-79.56c3.62 9.34 21.73 15.5 37.18 19.14l2.76.63a239.56 239.56 0 0 0-7.36 59.79 252.47 252.47 0 0 0 1.34 26.12c-35.91-6.51-57.09-16.52-57.09-26.12zm5.24 58.14a10 10 0 1 1 10-10 10 10 0 0 1-10 10zM134 343.49A148.54 148.54 0 0 1 118.08 316a14.07 14.07 0 0 0 5.72-7c1.3.33 2.61.66 3.93 1l.93-3.89c-1.36-.33-2.7-.65-4-1v-1a14 14 0 0 0-14-14c-.43 0-.86 0-1.28.06a148.7 148.7 0 0 1-3.68-25c8.72 9 30 16.1 57.27 20.91a227.08 227.08 0 0 0 5 27.39l-3.87-.57-.6 3.95q2.75.42 5.55.81a178.8 178.8 0 0 0 17.86 43.78c-26.71-3.98-46.39-10.36-52.91-17.95zm8.19 10.3c10.83 5.11 27.33 9.29 47.45 12.14 10.7 16.95 23.47 29.18 37.39 36a148.22 148.22 0 0 1-84.88-48.14zm109.7 50.6c-21.88-.81-41.82-15-57-37.75a473.17 473.17 0 0 0 57 3.46v34.29h.76zm-7.94-83a10 10 0 1 1 10 10 10 10 0 0 1-10.04-10.04zm11.94 83h-.77.77v-34.31a472.89 472.89 0 0 0 57-3.45c-15.23 22.79-35.17 36.93-57 37.74zm24.82-2.39c13.92-6.86 26.69-19.09 37.39-36 20.12-2.84 36.61-7 47.43-12.12A148.1 148.1 0 0 1 280.71 402zm93.15-58.59c-6.45 7.65-26.19 14.08-53.06 18.13a179.37 179.37 0 0 0 17.88-43.8l5.26-.77-.6-3.95-3.58.52a226.91 226.91 0 0 0 5-27.38c27.24-4.86 48.5-11.95 57.24-20.95a148.41 148.41 0 0 1-3.7 25.05 13.83 13.83 0 0 0-1.83-.12 14 14 0 0 0-14 14 10.38 10.38 0 0 0 .05 1.12c-1.35.34-2.72.68-4.1 1l.93 3.89q2.06-.48 4.05-1a14 14 0 0 0 6.12 7.12 148 148 0 0 1-15.66 27.11zm22.59-29.24a10 10 0 1 1 10-10 10 10 0 0 1-10 9.97zM83.92 295.81c-3.13-1.37-6.13-2.8-8.92-4.26l1.85-3.55c2.71 1.41 5.63 2.8 8.68 4.14zm-17.53-9.19a80.14 80.14 0 0 1-8.11-5.85l2.55-3.09a76 76 0 0 0 7.71 5.56z" fill="#333334"/></svg>
