<svg xmlns="http://www.w3.org/2000/svg" viewBox="0 0 512 512"><path d="M277.59 361.15a106.12 106.12 0 0 1-11.76 2l.44 4a111.53 111.53 0 0 0 12.21-2.07zm-58.83-3.27l-1.32 3.78a108.72 108.72 0 0 0 11.91 3.42l.88-3.9a105.8 105.8 0 0 1-11.47-3.3zm81.31-4.6a107 107 0 0 1-11 4.57l1.32 3.77a108.85 108.85 0 0 0 11.44-4.74zm-102.78-5.74l-2.13 3.39a108.85 108.85 0 0 0 10.84 6l1.73-3.6a105.18 105.18 0 0 1-10.44-5.79zm122.94-7a107.82 107.82 0 0 1-9.73 6.91l2.13 3.39a109.2 109.2 0 0 0 10.09-7.18zm-141.58-7.89l-2.82 2.83a112.63 112.63 0 0 0 9.23 8.24l2.5-3.12a110.14 110.14 0 0 1-8.91-7.91zm158.42-9a106.4 106.4 0 0 1-7.95 8.89l2.83 2.83a111.12 111.12 0 0 0 8.25-9.23zM163.77 314l-3.38 2.13a111 111 0 0 0 7.18 10.08l3.12-2.49a108.36 108.36 0 0 1-6.92-9.64zm186-10.52A109.41 109.41 0 0 1 344 314l3.38 2.13a111 111 0 0 0 6-10.84zm-196.36-10.85l-3.78 1.37a110.62 110.62 0 0 0 4.76 11.43l3.6-1.74a104.86 104.86 0 0 1-4.58-11.06zm204.22-11.57a103.54 103.54 0 0 1-3.29 11.47l3.77 1.32a111.52 111.52 0 0 0 3.43-11.9zM148.1 269.41l-4 .45a111.36 111.36 0 0 0 2.07 12.2l3.9-.89a108.54 108.54 0 0 1-1.97-11.76zm213.38-36.81l-3.89.89a106.15 106.15 0 0 1 2 11.76l4-.45a111.41 111.41 0 0 0-2.11-12.2zM149.56 221a112.27 112.27 0 0 0-3.41 11.91l3.9.88a107.06 107.06 0 0 1 3.29-11.47zm203.71-11.74l-3.6 1.74a107 107 0 0 1 4.6 11l3.73-1.3a109.61 109.61 0 0 0-4.73-11.42zm-193-10.54a108.85 108.85 0 0 0-6 10.84l3.61 1.73a106.38 106.38 0 0 1 5.77-10.45zm179.79-10.36l-3.06 2.53a106.91 106.91 0 0 1 6.93 9.71l3.38-2.14a114.56 114.56 0 0 0-7.24-10.08zm-164.39-9a110.81 110.81 0 0 0-8.24 9.23l3.13 2.5a108.16 108.16 0 0 1 7.94-8.91zm146.88-8.47l-2.49 3.13A108.16 108.16 0 0 1 329 182l2.82-2.83a113 113 0 0 0-9.26-8.24zM195 164a112.4 112.4 0 0 0-10.08 7.18l2.5 3.13a107.75 107.75 0 0 1 9.71-6.93zm106.63-6.15l-1.73 3.6a106.29 106.29 0 0 1 10.45 5.76l2.13-3.38a108.22 108.22 0 0 0-10.87-6.03zm-84.38-4.62a111 111 0 0 0-11.43 4.76l1.74 3.6a106.12 106.12 0 0 1 11-4.58zm61-3.51l-.88 3.9a104.28 104.28 0 0 1 11.48 3.28l1.31-3.78a108.62 108.62 0 0 0-11.91-3.45zm-36.92-2a114.44 114.44 0 0 0-12.21 2.08l.9 3.9a105.76 105.76 0 0 1 11.76-2z" fill="#333334"/><path d="M412.66 242.07a159.07 159.07 0 0 0-36.77-88.38 14 14 0 0 0-10.7-23 13.85 13.85 0 0 0-9.06 3.34 159.08 159.08 0 0 0-88.31-36.52 14 14 0 0 0-27.92 0A159.11 159.11 0 0 0 151.58 134a14 14 0 0 0-19 .76 14 14 0 0 0-.79 18.94 159.08 159.08 0 0 0-36.78 88.37 14 14 0 0 0-.01 27.86 159.17 159.17 0 0 0 36.57 88.69 14 14 0 0 0 11 22.71 13.86 13.86 0 0 0 8.68-3A159.12 159.12 0 0 0 240 415.16a14 14 0 0 0 27.78 0 159.06 159.06 0 0 0 88.76-36.85 14 14 0 0 0 18.58-1.08 14 14 0 0 0 1.06-18.6 159.17 159.17 0 0 0 36.57-88.7 14 14 0 0 0-.06-27.86zm-47.47-107.41a10 10 0 0 1 8 16q-3.23-3.68-6.73-7.16t-7.28-6.81a9.88 9.88 0 0 1 6.01-2.03zM253.86 88.55a10 10 0 1 1-10 10 10 10 0 0 1 10-10zm-118.41 49a10 10 0 0 1 13.05-1c-2.49 2.18-4.91 4.46-7.27 6.81s-4.58 4.72-6.74 7.17a10 10 0 0 1 .96-12.94zM86.41 256a10 10 0 1 1 10 10 10 10 0 0 1-10-10zm56.11 121.33a10 10 0 0 1-8.28-15.6q3.24 3.7 6.76 7.22t7.1 6.68a9.89 9.89 0 0 1-5.58 1.7zm111.34 46.11a10 10 0 1 1 10-10 10 10 0 0 1-10 10zm118.4-49a10 10 0 0 1-12.64 1.23q3.64-3.22 7.09-6.68t6.76-7.22a10 10 0 0 1-1.21 12.63zm-104.59 36.72a14 14 0 0 0-27.62 0c-74.51-6.58-134.67-66.87-141.05-141.4a14 14 0 0 0 0-27.51C105.72 168 165.91 108 240.17 101.46a14 14 0 0 0 27.38 0C341.82 108 402 168 408.67 242.25a14 14 0 0 0 .06 27.51c-6.41 74.53-66.56 134.82-141.06 141.4zM411.3 266a10 10 0 1 1 10-10 10 10 0 0 1-10 10z" fill="#333334"/><path d="M291.1 234.89l26.29-42.11-42.11 26.29-15.73-68q3 .16 6.06.49l.43-4c-2.45-.27-4.94-.46-7.43-.56l-4.75-20.54L232.44 219l-42.12-26.29 26.29 42.11-69 16q.17-2.66.45-5.28l-4-.44c-.24 2.2-.42 4.42-.52 6.66l-19.51 4.51 92.54 21.42-26.29 42.12 42.12-26.29 16.23 70.12c-2.24-.1-4.47-.28-6.67-.53l-.44 4c2.66.3 5.35.5 8.05.59l4.25 18.38 21.42-92.54 42.11 26.29-26.25-42.1 69.09-16q-.15 3.81-.57 7.56l4 .44c.33-2.95.55-5.95.64-8.94l19.41-4.49zm13.75-29.57L287 233.94l-8.74-2-2-8.74zm-27.68 30.46l80.08 18.53h-89a13.77 13.77 0 0 0-2.72-6.87zm-21.31-82.86l18.51 80-11.69 11.69a13.8 13.8 0 0 0-6.82-2.68zm-4 0v89.16a13.67 13.67 0 0 0-6.44 3L233.33 233zm-49 52.41l28.62 17.86-2 8.74-8.74 2zm27.64 30.47l12.22 12.2a13.87 13.87 0 0 0-2.31 6.31h-89.95zm-27.64 71.52l17.86-28.62 8.74 2 2 8.74zm27.61-30.48l-80-18.52h90.09a13.72 13.72 0 0 0 2.55 5.9zm21.39 82.89l-18.54-80.09 12.59-12.58a13.92 13.92 0 0 0 6 2.58zm-4.61-96.8a10 10 0 1 1 7.07 2.93 9.93 9.93 0 0 1-7.07-2.94zm8.61 96.79v-89.96a13.75 13.75 0 0 0 3.82-1 14.89 14.89 0 0 0 2.49-1.33l12.21 12.2zm49-52.4l-28.62-17.86 2-8.74 8.74-2zm-27.66-30.48l-12.08-12.09a13.67 13.67 0 0 0 3-6.44h89.16z" fill="#333334"/></svg>
