<svg xmlns="http://www.w3.org/2000/svg" viewBox="0 0 430 430"><path d="M50 132.54l.27.06v-.11zm164.86 164.4l.12.57.13-.57zm164.86-164.45v.11l.26-.06z" fill="#333334"/><path d="M215 50.29A164.71 164.71 0 0 0 50.29 215v.38a164.72 164.72 0 0 0 164.58 164.33h.26a164.73 164.73 0 0 0 164.58-164.33V215A164.71 164.71 0 0 0 215 50.29zM114 114a141.75 141.75 0 0 1 95.9-41.74L184 184.31 72.27 210.17A141.77 141.77 0 0 1 114 114zm0 202a141.78 141.78 0 0 1-41.73-95.51L184 246.32l25.79 111.39A141.74 141.74 0 0 1 114 316zm101-24.23l-14.36-62.07-62.08-14.36L200.64 201 215 138.88 229.35 201l62.08 14.37-62.08 14.36zM316 316a141.73 141.73 0 0 1-95.75 41.73L246 246.32l111.7-25.85A141.84 141.84 0 0 1 316 316zm-70-131.69l-25.93-112a142.84 142.84 0 0 1 137.66 137.86z" fill="#333334"/></svg>
